<svg width="20" height="20" viewBox="0 0 20 20" fill="none" xmlns="http://www.w3.org/2000/svg">
<path d="M6.20254 4.45801C6.73504 4.45801 7.22754 4.49967 7.67754 4.62301C8.08589 4.69805 8.47567 4.85203 8.82504 5.07634C9.15337 5.28217 9.39921 5.57134 9.56254 5.94217C9.72671 6.31301 9.80837 6.76717 9.80837 7.26134C9.80837 7.83884 9.68587 8.33301 9.39921 8.70384C9.15337 9.07551 8.74337 9.40467 8.25171 9.65217C8.94837 9.85884 9.48087 10.2297 9.80837 10.7238C10.1367 11.2188 10.3417 11.8372 10.3417 12.538C10.3417 13.1155 10.2184 13.6097 10.0134 14.0222C9.80837 14.4347 9.48087 14.8055 9.11171 15.053C8.7107 15.3183 8.26741 15.5133 7.80087 15.6297C7.30921 15.7538 6.81754 15.8363 6.32587 15.8363H0.833374V4.45801H6.20254ZM5.87421 9.07467C6.32504 9.07467 6.69421 8.95134 6.98087 8.74551C7.26754 8.53967 7.39087 8.16801 7.39087 7.71467C7.39087 7.46717 7.34921 7.21967 7.26754 7.05551C7.18587 6.89051 7.06254 6.76634 6.89921 6.64301C6.73504 6.56051 6.57087 6.47801 6.36587 6.43717C6.16087 6.39551 5.95671 6.39551 5.71004 6.39551H3.33337V9.07551H5.87504L5.87421 9.07467ZM5.99754 13.9397C6.24337 13.9397 6.48921 13.898 6.69421 13.8572C6.90119 13.8178 7.09694 13.7333 7.26754 13.6097C7.43453 13.489 7.57423 13.3346 7.67754 13.1563C7.75921 12.9505 7.84171 12.703 7.84171 12.4147C7.84171 11.8372 7.67754 11.4247 7.35004 11.1363C7.02171 10.8888 6.57087 10.7655 6.03837 10.7655H3.33337V13.9405L5.99754 13.9397ZM13.9075 13.898C14.235 14.228 14.7267 14.393 15.3825 14.393C15.8334 14.393 16.2434 14.2697 16.5709 14.0638C16.8992 13.8163 17.1042 13.5688 17.1859 13.3213H19.1942C18.8659 14.3105 18.3742 15.0113 17.7192 15.4647C17.0625 15.8772 16.2842 16.1247 15.3417 16.1247C14.7387 16.1265 14.1407 16.0145 13.5792 15.7947C13.074 15.6051 12.6234 15.2937 12.2675 14.888C11.887 14.5085 11.6056 14.0411 11.4484 13.5272C11.2434 12.9913 11.1609 12.4147 11.1609 11.7547C11.1609 11.1363 11.2434 10.5597 11.4484 10.023C11.6455 9.50641 11.9371 9.03108 12.3084 8.62134C12.6775 8.25051 13.1284 7.92134 13.62 7.71467C14.1673 7.49473 14.7519 7.38267 15.3417 7.38467C16.0384 7.38467 16.6534 7.50884 17.1859 7.79717C17.7192 8.08551 18.1284 8.41551 18.4567 8.91051C18.7916 9.38595 19.0412 9.91609 19.1942 10.4772C19.2759 11.0538 19.3167 11.6313 19.2759 12.2905H13.3334C13.3334 12.9505 13.5792 13.5688 13.9075 13.8988V13.898ZM16.4892 9.56967C16.2025 9.28134 15.7517 9.11634 15.2184 9.11634C14.85 9.11634 14.5625 9.19884 14.3167 9.32217C14.0709 9.44634 13.9075 9.61134 13.7434 9.77634C13.5925 9.93572 13.4927 10.1365 13.4567 10.353C13.415 10.5597 13.3742 10.7238 13.3742 10.8888H17.0625C16.9809 10.2705 16.7759 9.85884 16.4892 9.56967ZM12.8825 5.24134H17.4725V6.35467H12.8834V5.24134H12.8825Z" fill="#14A26B"/>
</svg>
